<svg width="161" height="50" viewBox="0 0 161 50" fill="none" xmlns="http://www.w3.org/2000/svg">
<path d="M85.0336 46.2207L84.8473 45.3103L85.0336 46.2207ZM159.294 0.669529C159.807 0.652288 160.237 1.0541 160.254 1.56701L160.535 9.92522C160.552 10.4381 160.151 10.8679 159.638 10.8851C159.125 10.9024 158.695 10.5005 158.678 9.98765L158.428 2.55812L150.999 2.80784C150.486 2.82508 150.056 2.42327 150.039 1.91037C150.021 1.39746 150.423 0.967702 150.936 0.950464L159.294 0.669529ZM3.86089 35.8506C4.31517 36.0893 4.48992 36.6511 4.25119 37.1054C4.01247 37.5597 3.45067 37.7345 2.99638 37.4957L3.86089 35.8506ZM11.8682 41.2854C11.3842 41.1148 11.1301 40.5841 11.3008 40.1001C11.4714 39.6161 12.0021 39.3621 12.4861 39.5327L11.8682 41.2854ZM16.9726 40.991C17.4642 41.1383 17.7432 41.6563 17.5959 42.1479C17.4485 42.6395 16.9305 42.9185 16.4389 42.7711L16.9726 40.991ZM25.7303 45.17C25.2292 45.0592 24.9128 44.5632 25.0235 44.0621C25.1343 43.561 25.6303 43.2446 26.1314 43.3554L25.7303 45.17ZM30.765 44.304C31.2692 44.3993 31.6008 44.8853 31.5055 45.3896C31.4102 45.8938 30.9241 46.2254 30.4199 46.1301L30.765 44.304ZM39.8759 47.6413C39.3671 47.5742 39.009 47.1074 39.076 46.5986C39.1431 46.0898 39.6099 45.7317 40.1187 45.7988L39.8759 47.6413ZM44.8213 46.355C45.3317 46.4085 45.7021 46.8657 45.6486 47.376C45.595 47.8864 45.1379 48.2568 44.6275 48.2033L44.8213 46.355ZM54.171 48.9471C53.6585 48.9211 53.2641 48.4845 53.2901 47.972C53.3161 47.4595 53.7526 47.065 54.2652 47.091L54.171 48.9471ZM58.9985 47.2644C59.5115 47.2758 59.9182 47.701 59.9068 48.2141C59.8953 48.7271 59.4702 49.1338 58.9571 49.1224L58.9985 47.2644ZM68.5371 49.04C68.0243 49.0612 67.5915 48.6627 67.5702 48.15C67.549 47.6372 67.9475 47.2044 68.4603 47.1832L68.5371 49.04ZM73.1808 46.9016C73.6924 46.8613 74.1398 47.2434 74.1801 47.755C74.2204 48.2666 73.8383 48.714 73.3267 48.7543L73.1808 46.9016ZM82.8557 47.5781C82.3501 47.6661 81.8689 47.3276 81.7809 46.822C81.6929 46.3164 82.0314 45.8352 82.5369 45.7472L82.8557 47.5781ZM87.1825 44.7827C87.6808 44.6599 88.1843 44.9643 88.3071 45.4626C88.4299 45.9609 88.1255 46.4643 87.6272 46.5871L87.1825 44.7827ZM97.0038 43.6328C96.5235 43.8136 95.9876 43.5709 95.8068 43.0906C95.626 42.6103 95.8687 42.0744 96.349 41.8935L97.0038 43.6328ZM100.83 40.0915C101.302 39.89 101.848 40.1094 102.049 40.5814C102.251 41.0534 102.031 41.5993 101.559 41.8008L100.83 40.0915ZM110.424 37.6369C109.967 37.8701 109.407 37.6885 109.174 37.2313C108.941 36.7741 109.123 36.2145 109.58 35.9813L110.424 37.6369ZM113.862 33.7202C114.313 33.4744 114.877 33.6403 115.123 34.0908C115.369 34.5413 115.203 35.1058 114.753 35.3516L113.862 33.7202ZM123.216 30.4578C122.778 30.725 122.206 30.5864 121.939 30.1483C121.672 29.7101 121.81 29.1384 122.248 28.8711L123.216 30.4578ZM126.36 26.3021C126.792 26.0255 127.367 26.1517 127.643 26.584C127.92 27.0163 127.794 27.591 127.361 27.8675L126.36 26.3021ZM135.481 22.4346C135.06 22.7285 134.481 22.6258 134.187 22.2051C133.893 21.7844 133.996 21.2051 134.417 20.9112L135.481 22.4346ZM138.366 18.0923C138.78 17.7899 139.362 17.8809 139.664 18.2956C139.966 18.7102 139.875 19.2915 139.461 19.5939L138.366 18.0923ZM147.227 13.6743C146.826 13.9944 146.242 13.9288 145.921 13.5277C145.601 13.1266 145.667 12.5419 146.068 12.2218L147.227 13.6743ZM149.813 9.15409C150.206 8.82361 150.792 8.87398 151.123 9.26659C151.453 9.65921 151.403 10.2454 151.01 10.5759L149.813 9.15409ZM158.296 3.98821C157.931 4.34954 157.343 4.34704 156.981 3.98262C156.62 3.6182 156.623 3.02986 156.987 2.66852L158.296 3.98821ZM1.83828 34.7165C2.47759 35.1001 3.15241 35.4783 3.86089 35.8506L2.99638 37.4957C2.25946 37.1085 1.55387 36.7132 0.882066 36.31L1.83828 34.7165ZM12.4861 39.5327C13.9222 40.039 15.4204 40.5256 16.9726 40.991L16.4389 42.7711C14.8606 42.2979 13.3342 41.8022 11.8682 41.2854L12.4861 39.5327ZM26.1314 43.3554C27.6485 43.6907 29.1949 44.0072 30.765 44.304L30.4199 46.1301C28.8317 45.8299 27.2666 45.5096 25.7303 45.17L26.1314 43.3554ZM40.1187 45.7988C41.6768 46.0041 43.2459 46.1898 44.8213 46.355L44.6275 48.2033C43.0358 48.0364 41.4503 47.8488 39.8759 47.6413L40.1187 45.7988ZM54.2652 47.091C55.8483 47.1714 57.4277 47.2294 58.9985 47.2644L58.9571 49.1224C57.3683 49.087 55.7713 49.0283 54.171 48.9471L54.2652 47.091ZM68.4603 47.1832C70.0568 47.1171 71.6322 47.0236 73.1808 46.9016L73.3267 48.7543C71.754 48.8782 70.1555 48.9731 68.5371 49.04L68.4603 47.1832ZM82.5369 45.7472C83.3196 45.6109 84.09 45.4654 84.8473 45.3103L85.22 47.131C84.444 47.2899 83.6556 47.4388 82.8557 47.5781L82.5369 45.7472ZM84.8473 45.3103C85.6166 45.1529 86.3953 44.9767 87.1825 44.7827L87.6272 46.5871C86.8174 46.7867 86.0146 46.9684 85.22 47.131L84.8473 45.3103ZM96.349 41.8935C97.8294 41.3362 99.3247 40.7339 100.83 40.0915L101.559 41.8008C100.031 42.4529 98.5112 43.0653 97.0038 43.6328L96.349 41.8935ZM109.58 35.9813C111.009 35.2526 112.438 34.4974 113.862 33.7202L114.753 35.3516C113.314 36.1367 111.869 36.8999 110.424 37.6369L109.58 35.9813ZM122.248 28.8711C123.633 28.0269 125.005 27.1691 126.36 26.3021L127.361 27.8675C125.995 28.7415 124.612 29.6063 123.216 30.4578L122.248 28.8711ZM134.417 20.9112C135.763 19.9705 137.081 19.0292 138.366 18.0923L139.461 19.5939C138.166 20.5381 136.838 21.4867 135.481 22.4346L134.417 20.9112ZM146.068 12.2218C147.379 11.1756 148.63 10.1504 149.813 9.15409L151.01 10.5759C149.814 11.5831 148.55 12.6185 147.227 13.6743L146.068 12.2218ZM156.987 2.66852C157.589 2.07212 158.143 1.50278 158.647 0.963608L160.004 2.23283C159.482 2.7913 158.911 3.37753 158.296 3.98821L156.987 2.66852Z" fill="#D0D0D0"/>
</svg>
