<svg width="164" height="32" viewBox="0 0 164 32" fill="none" xmlns="http://www.w3.org/2000/svg">
<path d="M79.7258 1.17011L79.7592 2.09872L79.7258 1.17011ZM162.628 27.9435C163.13 27.8394 163.453 27.3477 163.349 26.8451L161.653 18.656C161.549 18.1535 161.057 17.8305 160.555 17.9346C160.052 18.0386 159.729 18.5304 159.833 19.0329L161.341 26.3121L154.062 27.8198C153.559 27.9239 153.236 28.4157 153.34 28.9182C153.445 29.4207 153.936 29.7437 154.439 29.6396L162.628 27.9435ZM3.28118 30.3723C3.66644 30.0332 3.70391 29.4461 3.36487 29.0608C3.02584 28.6756 2.43869 28.6381 2.05343 28.9771L3.28118 30.3723ZM9.78266 23.204C9.35249 23.4838 9.23063 24.0594 9.51048 24.4896C9.79033 24.9198 10.3659 25.0416 10.7961 24.7618L9.78266 23.204ZM14.8128 22.2875C15.2558 22.0285 15.405 21.4593 15.1459 21.0163C14.8869 20.5733 14.3177 20.4242 13.8747 20.6832L14.8128 22.2875ZM22.3394 16.1629C21.8785 16.3886 21.6878 16.9452 21.9135 17.4061C22.1392 17.867 22.6958 18.0576 23.1567 17.8319L22.3394 16.1629ZM27.4364 15.8184C27.904 15.6069 28.1117 15.0565 27.9003 14.5888C27.6888 14.1212 27.1384 13.9135 26.6707 14.125L27.4364 15.8184ZM35.5045 10.4285C35.0259 10.6135 34.7878 11.1516 34.9729 11.6302C35.1579 12.1089 35.696 12.347 36.1746 12.1619L35.5045 10.4285ZM40.6138 10.5134C41.0972 10.3412 41.3495 9.80966 41.1772 9.32624C41.005 8.84283 40.4734 8.59058 39.99 8.76283L40.6138 10.5134ZM49.0897 5.79156C48.5977 5.93758 48.3172 6.45479 48.4632 6.94676C48.6093 7.43874 49.1265 7.7192 49.6184 7.57318L49.0897 5.79156ZM54.1776 6.28957C54.6736 6.1576 54.9686 5.64858 54.8366 5.15265C54.7047 4.65671 54.1956 4.36167 53.6997 4.49365L54.1776 6.28957ZM63.0294 2.31668C62.5261 2.41687 62.1993 2.90611 62.2995 3.40942C62.3997 3.91274 62.8889 4.23953 63.3922 4.13934L63.0294 2.31668ZM68.0462 3.30082C68.5529 3.21944 68.8977 2.74272 68.8163 2.23602C68.735 1.72932 68.2582 1.38453 67.7515 1.4659L68.0462 3.30082ZM77.2894 0.364046C76.7773 0.397618 76.3894 0.839966 76.423 1.35206C76.4566 1.86415 76.8989 2.25207 77.411 2.2185L77.2894 0.364046ZM82.153 2.06135C82.6662 2.0633 83.0838 1.64886 83.0857 1.13567C83.0877 0.622481 82.6732 0.204881 82.1601 0.202933L82.153 2.06135ZM91.9688 0.865009C91.4594 0.80244 90.9958 1.16464 90.9332 1.674C90.8706 2.18336 91.2328 2.64701 91.7422 2.70957L91.9688 0.865009ZM96.5214 3.40526C97.0276 3.48983 97.5064 3.14805 97.591 2.64188C97.6756 2.1357 97.3338 1.65681 96.8277 1.57224L96.5214 3.40526ZM106.424 3.53034C105.925 3.41148 105.424 3.71984 105.305 4.21907C105.186 4.71831 105.494 5.21938 105.993 5.33824L106.424 3.53034ZM110.688 6.5268C111.184 6.65955 111.693 6.3653 111.826 5.86958C111.959 5.37385 111.665 4.86437 111.169 4.73162L110.688 6.5268ZM120.547 7.49364C120.058 7.33718 119.535 7.60657 119.379 8.09533C119.222 8.58409 119.492 9.10714 119.981 9.26359L120.547 7.49364ZM124.581 10.7917C125.067 10.9587 125.595 10.7006 125.762 10.2154C125.929 9.73009 125.671 9.20135 125.186 9.03439L124.581 10.7917ZM134.357 12.4014C133.879 12.2149 133.34 12.4512 133.154 12.9293C132.967 13.4074 133.204 13.9462 133.682 14.1327L134.357 12.4014ZM138.184 15.9419C138.658 16.1381 139.201 15.9126 139.398 15.4384C139.594 14.9642 139.368 14.4208 138.894 14.2246L138.184 15.9419ZM147.837 18.1478C147.371 17.9311 146.819 18.1327 146.602 18.5979C146.385 19.0631 146.587 19.6159 147.052 19.8325L147.837 18.1478ZM151.415 21.9314C151.874 22.1601 152.432 21.9731 152.661 21.5136C152.889 21.0542 152.702 20.4964 152.243 20.2677L151.415 21.9314ZM160.875 24.9535C160.436 24.6882 159.865 24.8293 159.6 25.2686C159.334 25.7079 159.475 26.2791 159.915 26.5444L160.875 24.9535ZM1.58271 31.951C2.11364 31.4275 2.68036 30.901 3.28118 30.3723L2.05343 28.9771C1.42848 29.5271 0.83589 30.0775 0.277971 30.6276L1.58271 31.951ZM10.7961 24.7618C12.0725 23.9314 13.4139 23.1055 14.8128 22.2875L13.8747 20.6832C12.4523 21.515 11.0856 22.3563 9.78266 23.204L10.7961 24.7618ZM23.1567 17.8319C24.5521 17.1486 25.9804 16.4766 27.4364 15.8184L26.6707 14.125C25.198 14.7908 23.7524 15.4709 22.3394 16.1629L23.1567 17.8319ZM36.1746 12.1619C37.6404 11.5953 39.1217 11.0451 40.6138 10.5134L39.99 8.76283C38.4824 9.30003 36.9857 9.85591 35.5045 10.4285L36.1746 12.1619ZM49.6184 7.57318C51.1381 7.12214 52.6593 6.69362 54.1776 6.28957L53.6997 4.49365C52.164 4.90233 50.6258 5.33563 49.0897 5.79156L49.6184 7.57318ZM63.3922 4.13934C64.9594 3.82739 66.5125 3.54713 68.0462 3.30082L67.7515 1.4659C66.1939 1.71605 64.6181 2.00044 63.0294 2.31668L63.3922 4.13934ZM77.411 2.2185C78.2037 2.16653 78.9867 2.12648 79.7592 2.09872L79.6925 0.241493C78.901 0.269936 78.0996 0.310931 77.2894 0.364046L77.411 2.2185ZM79.7592 2.09872C80.544 2.07052 81.3423 2.05827 82.153 2.06135L82.1601 0.202933C81.326 0.199767 80.5031 0.212363 79.6925 0.241493L79.7592 2.09872ZM91.7422 2.70957C93.3122 2.90244 94.9073 3.13557 96.5214 3.40526L96.8277 1.57224C95.1891 1.29846 93.5674 1.06138 91.9688 0.865009L91.7422 2.70957ZM105.993 5.33824C107.554 5.70979 109.121 6.10702 110.688 6.5268L111.169 4.73162C109.585 4.30761 108.002 3.9061 106.424 3.53034L105.993 5.33824ZM119.981 9.26359C121.525 9.75795 123.06 10.2684 124.581 10.7917L125.186 9.03439C123.653 8.50683 122.105 7.9922 120.547 7.49364L119.981 9.26359ZM133.682 14.1327C135.212 14.7297 136.714 15.3341 138.184 15.9419L138.894 14.2246C137.413 13.612 135.899 13.003 134.357 12.4014L133.682 14.1327ZM147.052 19.8325C148.573 20.5404 150.03 21.242 151.415 21.9314L152.243 20.2677C150.843 19.5708 149.371 18.8621 147.837 18.1478L147.052 19.8325ZM159.915 26.5444C160.64 26.9823 161.312 27.405 161.929 27.8102L162.95 26.2569C162.311 25.8372 161.618 25.4019 160.875 24.9535L159.915 26.5444Z" fill="#D0D0D0"/>
</svg>
