<svg width="35" height="35" viewBox="0 0 35 35" fill="none" xmlns="http://www.w3.org/2000/svg">
<g id="arrow_right_circle">
<path id="Icon color" fill-rule="evenodd" clip-rule="evenodd" d="M17.5499 31.6582C9.84097 31.6582 3.59161 25.4089 3.59161 17.6999C3.59161 9.99094 9.84097 3.74158 17.5499 3.74158C25.2589 3.74158 31.5083 9.99094 31.5083 17.6999C31.5083 25.4089 25.2589 31.6582 17.5499 31.6582ZM21.5281 17.1974L17.3406 13.0099C17.1394 12.8126 16.8393 12.7557 16.5799 12.8656C16.3204 12.9755 16.1525 13.2306 16.1542 13.5124V21.8874C16.1581 22.1666 16.3281 22.4166 16.5863 22.5229C16.8445 22.6292 17.1412 22.5714 17.3406 22.3759L21.5281 18.1884C21.7958 17.9123 21.7958 17.4735 21.5281 17.1974Z" fill="white"/>
</g>
</svg>
