<svg width="38" height="38" viewBox="0 0 38 38" fill="none" xmlns="http://www.w3.org/2000/svg">
<g id="Iconly/Bulk/Folder">
<g id="Folder">
<path id="Folder 2" opacity="0.4" d="M26.1989 8.22677H21.641C20.5055 8.23427 19.4275 7.72918 18.7079 6.85255L17.207 4.77749C16.4995 3.89317 15.4215 3.38571 14.2877 3.40327H11.0655C5.28203 3.40327 3.14766 6.79758 3.14766 12.5693V18.8082C3.14046 19.4943 34.1147 19.4935 34.1167 18.8082V16.9943C34.1443 11.2226 32.065 8.22677 26.1989 8.22677Z" fill="#E36F2D"/>
<path id="Folder_2" fill-rule="evenodd" clip-rule="evenodd" d="M32.3128 10.4397C32.8083 11.019 33.1912 11.6855 33.442 12.4048C33.9354 13.8833 34.1638 15.4371 34.1167 16.9947V25.1301C34.1147 25.8153 34.0641 26.4995 33.9652 27.1776C33.7769 28.3743 33.3559 29.5228 32.7259 30.5582C32.4363 31.0584 32.0847 31.5201 31.6794 31.9324C29.8445 33.6165 27.4078 34.4931 24.9182 34.3648H12.3323C9.83876 34.4921 7.39821 33.6159 5.55742 31.9324C5.15692 31.5193 4.80996 31.0576 4.52466 30.5582C3.89837 29.5235 3.48633 28.374 3.31289 27.1776C3.20261 26.5007 3.14735 25.8159 3.14765 25.1301V16.9947C3.14738 16.3153 3.18415 15.6363 3.25781 14.9609C3.2733 14.8424 3.29653 14.7258 3.31952 14.6104C3.35785 14.4181 3.39551 14.2291 3.39551 14.0401C3.53529 13.225 3.79029 12.4338 4.15287 11.6902C5.22694 9.3953 7.43016 8.22721 11.0379 8.22721H26.1851C28.2058 8.07093 30.2115 8.67925 31.8033 9.93124C31.9867 10.0867 32.157 10.2567 32.3128 10.4397ZM10.8458 24.3737H26.4336H26.4612C26.8032 24.3885 27.137 24.2661 27.3879 24.0337C27.6389 23.8013 27.7862 23.4783 27.7969 23.1369C27.8162 22.8367 27.7174 22.5409 27.5215 22.3123C27.2961 22.0052 26.939 21.8219 26.5576 21.8176H10.8458C10.1386 21.8176 9.56522 22.3898 9.56522 23.0956C9.56522 23.8015 10.1386 24.3737 10.8458 24.3737Z" fill="#E36F2D"/>
</g>
</g>
</svg>
