<svg width="139" height="40" viewBox="0 0 139 40" fill="none" xmlns="http://www.w3.org/2000/svg">
<path d="M43.1826 26.5102H52.6739V23.6302H46.556V12.7822H43.1826V26.5102Z" fill="#393B6A"/>
<path d="M58.2978 24.5903C56.9446 24.5903 56.2394 23.3999 56.2394 21.6143C56.2394 19.8287 56.9446 18.6191 58.2978 18.6191C59.651 18.6191 60.3752 19.8287 60.3752 21.6143C60.3752 23.3999 59.651 24.5903 58.2978 24.5903ZM58.3168 26.8175C61.4615 26.8175 63.5199 24.5711 63.5199 21.6143C63.5199 18.6575 61.4615 16.4111 58.3168 16.4111C55.1912 16.4111 53.0947 18.6575 53.0947 21.6143C53.0947 24.5711 55.1912 26.8175 58.3168 26.8175Z" fill="#393B6A"/>
<path d="M68.9626 29.9089C70.4111 29.9089 71.688 29.5825 72.5457 28.8145C73.3271 28.1041 73.8417 27.0289 73.8417 25.5505V16.6801H70.8685V17.7361H70.8304C70.2586 16.9105 69.3819 16.3921 68.0859 16.3921C65.6655 16.3921 63.9883 18.4273 63.9883 21.3073C63.9883 24.3217 66.0276 25.9729 68.2193 25.9729C69.401 25.9729 70.1443 25.4929 70.716 24.8401H70.7923V25.8193C70.7923 27.0097 70.2396 27.7009 68.9245 27.7009C67.8953 27.7009 67.3807 27.2593 67.2092 26.7409H64.1979C64.5029 28.7953 66.2753 29.9089 68.9626 29.9089ZM68.9436 23.6497C67.781 23.6497 67.0186 22.6897 67.0186 21.2113C67.0186 19.7137 67.781 18.7537 68.9436 18.7537C70.2396 18.7537 70.9257 19.8673 70.9257 21.1921C70.9257 22.5745 70.2967 23.6497 68.9436 23.6497Z" fill="#393B6A"/>
<path d="M79.955 24.5903C78.6018 24.5903 77.8967 23.3999 77.8967 21.6143C77.8967 19.8287 78.6018 18.6191 79.955 18.6191C81.3082 18.6191 82.0324 19.8287 82.0324 21.6143C82.0324 23.3999 81.3082 24.5903 79.955 24.5903ZM79.9741 26.8175C83.1188 26.8175 85.1771 24.5711 85.1771 21.6143C85.1771 18.6575 83.1188 16.4111 79.9741 16.4111C76.8484 16.4111 74.752 18.6575 74.752 21.6143C74.752 24.5711 76.8484 26.8175 79.9741 26.8175Z" fill="#393B6A"/>
<path d="M86.084 26.5102H89.1906V16.6798H86.084V26.5102ZM86.084 15.3166H89.1906V12.7822H86.084V15.3166Z" fill="#393B6A"/>
<path d="M90.5396 29.7553H93.6461V25.4929H93.6843C94.2941 26.3185 95.1899 26.8177 96.4478 26.8177C99.0017 26.8177 100.698 24.7825 100.698 21.5953C100.698 18.6385 99.116 16.3921 96.524 16.3921C95.1899 16.3921 94.237 16.9873 93.5699 17.8705H93.5127V16.6801H90.5396V29.7553ZM95.6473 24.3985C94.3132 24.3985 93.5508 23.3041 93.5508 21.7105C93.5508 20.1169 94.237 18.9073 95.5901 18.9073C96.9243 18.9073 97.5532 20.0209 97.5532 21.7105C97.5532 23.3809 96.829 24.3985 95.6473 24.3985Z" fill="#393B6A"/>
<path d="M105.755 26.8177C108.309 26.8177 110.196 25.7041 110.196 23.5537C110.196 21.0385 108.176 20.5969 106.461 20.3089C105.222 20.0785 104.116 19.9825 104.116 19.2913C104.116 18.6769 104.707 18.3889 105.47 18.3889C106.327 18.3889 106.918 18.6577 107.032 19.5409H109.891C109.739 17.6017 108.252 16.3921 105.489 16.3921C103.182 16.3921 101.277 17.4673 101.277 19.5409C101.277 21.8449 103.087 22.3057 104.783 22.5937C106.079 22.8241 107.261 22.9201 107.261 23.8033C107.261 24.4369 106.67 24.7825 105.736 24.7825C104.707 24.7825 104.059 24.3025 103.945 23.3233H101.01C101.105 25.4929 102.897 26.8177 105.755 26.8177Z" fill="#393B6A"/>
<path d="M114.416 26.7986C115.77 26.7986 116.627 26.261 117.332 25.301H117.39V26.5106H120.363V16.6802H117.256V22.1714C117.256 23.3426 116.608 24.149 115.541 24.149C114.55 24.149 114.073 23.5538 114.073 22.4786V16.6802H110.986V23.1314C110.986 25.3202 112.167 26.7986 114.416 26.7986Z" fill="#393B6A"/>
<path d="M121.713 26.5105H124.82V21.0001C124.82 19.8289 125.392 19.0033 126.364 19.0033C127.298 19.0033 127.736 19.6177 127.736 20.6737V26.5105H130.843V21.0001C130.843 19.8289 131.395 19.0033 132.386 19.0033C133.32 19.0033 133.759 19.6177 133.759 20.6737V26.5105H136.865V20.1169C136.865 17.9089 135.76 16.3921 133.549 16.3921C132.291 16.3921 131.243 16.9297 130.48 18.1201H130.442C129.947 17.0641 128.975 16.3921 127.698 16.3921C126.287 16.3921 125.354 17.0641 124.744 18.0817H124.687V16.6801H121.713V26.5105Z" fill="#393B6A"/>
<path fill-rule="evenodd" clip-rule="evenodd" d="M18.4258 36.1103C27.1974 36.1103 34.3082 28.9469 34.3082 20.1103C34.3082 11.2738 27.1974 4.11035 18.4258 4.11035C9.65421 4.11035 2.54346 11.2738 2.54346 20.1103C2.54346 28.9469 9.65421 36.1103 18.4258 36.1103ZM23.3806 11.5638C23.6217 10.7008 22.7904 10.1905 22.0311 10.7354L11.4321 18.342C10.6087 18.933 10.7382 20.1103 11.6267 20.1103H14.4177V20.0886H19.8572L15.425 21.664L13.4711 28.6569C13.2299 29.5199 14.0612 30.0302 14.8205 29.4853L25.4195 21.8787C26.243 21.2878 26.1134 20.1103 25.225 20.1103H20.9925L23.3806 11.5638Z" fill="#393B6A"/>
</svg>
