<svg width="148" height="40" viewBox="0 0 148 40" fill="none" xmlns="http://www.w3.org/2000/svg">
<path d="M46.7183 26.5968H56.1091V23.787H50.056V13.2036H46.7183V26.5968Z" fill="#393B6A"/>
<path d="M61.6729 24.7238C60.334 24.7238 59.6363 23.5625 59.6363 21.8204C59.6363 20.0784 60.334 18.8983 61.6729 18.8983C63.0118 18.8983 63.7283 20.0784 63.7283 21.8204C63.7283 23.5625 63.0118 24.7238 61.6729 24.7238ZM61.6918 26.8967C64.8032 26.8967 66.8398 24.7051 66.8398 21.8204C66.8398 18.9358 64.8032 16.7441 61.6918 16.7441C58.5992 16.7441 56.5249 18.9358 56.5249 21.8204C56.5249 24.7051 58.5992 26.8967 61.6918 26.8967Z" fill="#393B6A"/>
<path d="M72.2249 29.9127C73.6581 29.9127 74.9215 29.5943 75.7701 28.845C76.5432 28.1519 77.0524 27.103 77.0524 25.6606V17.0066H74.1106V18.0368H74.0729C73.5072 17.2313 72.6398 16.7256 71.3575 16.7256C68.9627 16.7256 67.3032 18.7111 67.3032 21.5209C67.3032 24.4618 69.3209 26.0727 71.4895 26.0727C72.6587 26.0727 73.3941 25.6044 73.9598 24.9675H74.0352V25.9229C74.0352 27.0842 73.4884 27.7586 72.1872 27.7586C71.1689 27.7586 70.6598 27.3277 70.4901 26.822H67.5107C67.8124 28.8263 69.5661 29.9127 72.2249 29.9127ZM72.2061 23.8062C71.0558 23.8062 70.3015 22.8696 70.3015 21.4272C70.3015 19.9662 71.0558 19.0296 72.2061 19.0296C73.4884 19.0296 74.1672 20.116 74.1672 21.4085C74.1672 22.7572 73.5449 23.8062 72.2061 23.8062Z" fill="#393B6A"/>
<path d="M83.1011 24.7238C81.7623 24.7238 81.0646 23.5625 81.0646 21.8204C81.0646 20.0784 81.7623 18.8983 83.1011 18.8983C84.44 18.8983 85.1566 20.0784 85.1566 21.8204C85.1566 23.5625 84.44 24.7238 83.1011 24.7238ZM83.12 26.8967C86.2314 26.8967 88.2676 24.7051 88.2676 21.8204C88.2676 18.9358 86.2314 16.7441 83.12 16.7441C80.0274 16.7441 77.9531 18.9358 77.9531 21.8204C77.9531 24.7051 80.0274 26.8967 83.12 26.8967Z" fill="#393B6A"/>
<path d="M89.166 26.5968H92.2397V17.0061H89.166V26.5968ZM89.166 15.6762H92.2397V13.2036H89.166V15.6762Z" fill="#393B6A"/>
<path d="M93.5728 29.7629H96.6465V25.6044H96.6842C97.2876 26.4099 98.1739 26.8969 99.4185 26.8969C101.945 26.8969 103.624 24.9113 103.624 21.8019C103.624 18.9172 102.058 16.7256 99.4939 16.7256C98.1739 16.7256 97.231 17.3063 96.571 18.1679H96.5145V17.0066H93.5728V29.7629ZM98.6265 24.5367C97.3065 24.5367 96.5522 23.469 96.5522 21.9143C96.5522 20.3595 97.231 19.1794 98.5699 19.1794C99.8899 19.1794 100.512 20.2659 100.512 21.9143C100.512 23.5439 99.7956 24.5367 98.6265 24.5367Z" fill="#393B6A"/>
<path d="M108.628 26.8969C111.155 26.8969 113.022 25.8105 113.022 23.7125C113.022 21.2587 111.023 20.8278 109.326 20.5469C108.1 20.3221 107.006 20.2284 107.006 19.5541C107.006 18.9547 107.591 18.6737 108.345 18.6737C109.194 18.6737 109.778 18.9359 109.891 19.7976H112.72C112.569 17.9057 111.098 16.7256 108.364 16.7256C106.082 16.7256 104.197 17.7746 104.197 19.7976C104.197 22.0454 105.988 22.495 107.666 22.7759C108.949 23.0007 110.118 23.0944 110.118 23.956C110.118 24.5742 109.533 24.9113 108.609 24.9113C107.591 24.9113 106.95 24.443 106.837 23.4877H103.933C104.027 25.6044 105.799 26.8969 108.628 26.8969Z" fill="#393B6A"/>
<path d="M117.197 26.878C118.536 26.878 119.384 26.3535 120.082 25.4169H120.139V26.597H123.08V17.0063H120.007V22.3636C120.007 23.5063 119.366 24.293 118.31 24.293C117.329 24.293 116.858 23.7123 116.858 22.6633V17.0063H113.803V23.3002C113.803 25.4356 114.972 26.878 117.197 26.878Z" fill="#393B6A"/>
<path d="M124.417 26.5972H127.491V21.2212C127.491 20.0786 128.057 19.2731 129.019 19.2731C129.943 19.2731 130.376 19.8725 130.376 20.9028V26.5972H133.45V21.2212C133.45 20.0786 133.997 19.2731 134.977 19.2731C135.901 19.2731 136.335 19.8725 136.335 20.9028V26.5972H139.409V20.3595C139.409 18.2054 138.315 16.7256 136.128 16.7256C134.883 16.7256 133.846 17.2501 133.092 18.4114H133.054C132.564 17.3812 131.602 16.7256 130.339 16.7256C128.943 16.7256 128.019 17.3812 127.416 18.374H127.359V17.0066H124.417V26.5972Z" fill="#393B6A"/>
<path d="M27.9651 5.54274L24.8748 4.72021L22.2707 14.3745L19.9196 5.65855L16.8293 6.48107L19.3695 15.898L13.0424 9.61308L10.7802 11.8602L17.7202 18.7541L9.07754 16.4537L8.24951 19.5234L17.6927 22.0369C17.5846 21.5737 17.5274 21.091 17.5274 20.5951C17.5274 17.0848 20.3921 14.2391 23.9259 14.2391C27.4598 14.2391 30.3245 17.0848 30.3245 20.5951C30.3245 21.0878 30.268 21.5675 30.1612 22.028L38.7433 24.3122L39.5713 21.2426L30.0906 18.7191L38.7338 16.4185L37.9058 13.3489L28.4254 15.8722L34.7525 9.58727L32.4902 7.3401L25.6465 14.1383L27.9651 5.54274Z" fill="#393B6A"/>
<path d="M30.1528 22.064C29.8879 23.1766 29.3285 24.1762 28.561 24.9771L34.7784 31.1531L37.0406 28.906L30.1528 22.064Z" fill="#393B6A"/>
<path d="M28.4978 25.0415C27.7211 25.8296 26.7395 26.4177 25.6387 26.7207L27.9011 35.1078L30.9913 34.2853L28.4978 25.0415Z" fill="#393B6A"/>
<path d="M25.5233 26.7515C25.0126 26.882 24.4773 26.9513 23.9257 26.9513C23.3347 26.9513 22.7623 26.8717 22.219 26.7227L19.9546 35.1174L23.0448 35.9399L25.5233 26.7515Z" fill="#393B6A"/>
<path d="M22.11 26.6918C21.0261 26.3737 20.0619 25.7781 19.301 24.9878L13.0684 31.179L15.3306 33.4262L22.11 26.6918Z" fill="#393B6A"/>
<path d="M19.2489 24.9327C18.5011 24.1374 17.9563 23.1512 17.6971 22.0557L9.08691 24.3474L9.91494 27.4171L19.2489 24.9327Z" fill="#393B6A"/>
</svg>
