<svg width="38" height="38" viewBox="0 0 38 38" fill="none" xmlns="http://www.w3.org/2000/svg">
<g id="Iconly/Bulk/Message">
<g id="Group">
<path id="Fill 1" opacity="0.4" d="M34.1884 24.9917C34.1884 29.3125 30.7194 32.8126 26.3985 32.8281H26.383H11.0355C6.73013 32.8281 3.2146 29.3435 3.2146 25.0227V25.0072C3.2146 25.0072 3.22389 18.1527 3.23628 14.7053C3.23783 14.0579 3.9812 13.6955 4.48762 14.0982C8.16732 17.0175 14.7477 22.3403 14.8298 22.41C15.9294 23.2912 17.3232 23.7884 18.748 23.7884C20.1728 23.7884 21.5666 23.2912 22.6662 22.393C22.7482 22.3388 29.1815 17.1754 32.917 14.2082C33.4249 13.8039 34.1714 14.1663 34.1729 14.8121C34.1884 18.2332 34.1884 24.9917 34.1884 24.9917Z" fill="#E36F2D"/>
<path id="Fill 4" d="M33.3775 9.09237C32.0364 6.56491 29.3974 4.95117 26.492 4.95117H11.0361C8.13075 4.95117 5.49178 6.56491 4.15061 9.09237C3.85016 9.65765 3.99264 10.3623 4.49287 10.7619L15.9919 19.9595C16.7972 20.61 17.7729 20.9337 18.7486 20.9337C18.7548 20.9337 18.7594 20.9337 18.7641 20.9337C18.7687 20.9337 18.7749 20.9337 18.7796 20.9337C19.7552 20.9337 20.7309 20.61 21.5362 19.9595L33.0353 10.7619C33.5355 10.3623 33.678 9.65765 33.3775 9.09237Z" fill="#E36F2D"/>
</g>
</g>
</svg>
