<svg width="33" height="33" viewBox="0 0 33 33" fill="none" xmlns="http://www.w3.org/2000/svg">
<path d="M27.1042 9.64504C26.3272 9.98874 25.5032 10.2145 24.6594 10.3147C25.5487 9.78288 26.2143 8.94583 26.5322 7.95957C25.6976 8.45625 24.7826 8.80434 23.8289 8.99263C23.1883 8.30723 22.3392 7.85266 21.4137 7.69961C20.4881 7.54656 19.5378 7.70359 18.7107 8.14629C17.8836 8.58899 17.2259 9.29256 16.8398 10.1476C16.4538 11.0027 16.3611 11.9613 16.5761 12.8745C14.8836 12.7897 13.2279 12.3499 11.7164 11.5836C10.205 10.8173 8.87154 9.74178 7.80272 8.42674C7.4244 9.07655 7.22559 9.81524 7.22665 10.5672C7.22665 12.043 7.97778 13.3468 9.11975 14.1101C8.44394 14.0888 7.78301 13.9063 7.19205 13.5778V13.6307C7.19225 14.6136 7.53236 15.5662 8.15472 16.3269C8.77708 17.0877 9.64339 17.6098 10.6067 17.8047C9.97939 17.9747 9.32159 17.9998 8.68312 17.878C8.95473 18.724 9.48413 19.4639 10.1972 19.9941C10.9102 20.5243 11.7712 20.8182 12.6596 20.8347C11.7767 21.5281 10.7657 22.0407 9.6845 22.3432C8.6033 22.6457 7.47309 22.7321 6.35847 22.5975C8.30419 23.8488 10.5692 24.5131 12.8825 24.5109C20.7124 24.5109 24.9943 18.0245 24.9943 12.3992C24.9943 12.216 24.9892 12.0307 24.9811 11.8496C25.8145 11.2472 26.5338 10.501 27.1052 9.64606L27.1042 9.64504Z" fill="#1C2436"/>
</svg>
